<svg width="160" height="160" viewBox="0 0 160 160" fill="none" xmlns="http://www.w3.org/2000/svg" role="img" aria-labelledby="logoTitle logoDesc">
  <title id="logoTitle">miai.de5.net</title>
  <desc id="logoDesc">融合字母 A、AI 节点与数字花园嫩芽的站点标识</desc>
  <defs>
    <linearGradient id="miaiMark" x1="28" y1="24" x2="136" y2="140" gradientUnits="userSpaceOnUse">
      <stop stop-color="#0064FA"/>
      <stop offset="0.58" stop-color="#00A1FF"/>
      <stop offset="1" stop-color="#00A870"/>
    </linearGradient>
    <linearGradient id="miaiInner" x1="48" y1="42" x2="112" y2="118" gradientUnits="userSpaceOnUse">
      <stop stop-color="#FFFFFF"/>
      <stop offset="1" stop-color="#E8F3FF"/>
    </linearGradient>
    <filter id="softShadow" x="8" y="10" width="144" height="146" filterUnits="userSpaceOnUse" color-interpolation-filters="sRGB">
      <feDropShadow dx="0" dy="16" stdDeviation="14" flood-color="#0064FA" flood-opacity="0.22"/>
      <feDropShadow dx="0" dy="3" stdDeviation="4" flood-color="#1C1F23" flood-opacity="0.08"/>
    </filter>
  </defs>
  <rect x="18" y="18" width="124" height="124" rx="34" fill="url(#miaiMark)" filter="url(#softShadow)"/>
  <path d="M39 112L74.72 48.56C77.96 42.8 86.24 42.8 89.48 48.56L125 112" stroke="url(#miaiInner)" stroke-width="13" stroke-linecap="round" stroke-linejoin="round"/>
  <path d="M58 89H106" stroke="#FFFFFF" stroke-width="10" stroke-linecap="round" opacity="0.94"/>
  <path d="M66 112L82.1 82.4L98 112" stroke="#FFFFFF" stroke-width="8" stroke-linecap="round" stroke-linejoin="round" opacity="0.9"/>
  <circle cx="39" cy="112" r="7" fill="#FFFFFF"/>
  <circle cx="125" cy="112" r="7" fill="#FFFFFF"/>
  <circle cx="82" cy="48" r="7" fill="#FFFFFF"/>
  <circle cx="82" cy="89" r="6" fill="#FFFFFF"/>
  <path d="M99 42C110.5 39.4 120.5 42.9 128 52.5C116.7 55.3 106.6 51.8 99 42Z" fill="#B7F4C8" opacity="0.95"/>
  <path d="M103 42.5C113.8 45.4 121.6 48.6 128 52.5" stroke="#00A870" stroke-width="3" stroke-linecap="round" opacity="0.7"/>
</svg>
